<svg width="27" height="27" viewBox="0 0 27 27" fill="none" xmlns="http://www.w3.org/2000/svg">
<path d="M1.1073 22.7944C1.1073 21.151 1.76014 19.5749 2.92222 18.4128C4.08429 17.2508 5.6604 16.5979 7.30381 16.5979H19.6968C21.3403 16.5979 22.9164 17.2508 24.0784 18.4128C25.2405 19.5749 25.8934 21.151 25.8934 22.7944C25.8934 23.6161 25.5669 24.4042 24.9859 24.9852C24.4049 25.5663 23.6168 25.8927 22.7951 25.8927H4.20556C3.38385 25.8927 2.59579 25.5663 2.01476 24.9852C1.43372 24.4042 1.1073 23.6161 1.1073 22.7944Z" stroke="#303030" stroke-width="2.14692" stroke-linejoin="round"/>
<path d="M13.4997 10.4011C16.0664 10.4011 18.1471 8.32036 18.1471 5.75368C18.1471 3.187 16.0664 1.10629 13.4997 1.10629C10.9331 1.10629 8.85236 3.187 8.85236 5.75368C8.85236 8.32036 10.9331 10.4011 13.4997 10.4011Z" stroke="#303030" stroke-width="2.14692"/>
</svg>
