<svg width="24" height="27" viewBox="0 0 24 27" fill="none" xmlns="http://www.w3.org/2000/svg">
<path d="M21.6915 20.7702C21.0316 19.6235 20.0512 16.3895 20.0512 12.183C20.0512 9.74749 19.0931 7.41176 17.3877 5.68963C15.6824 3.96749 13.3694 3 10.9577 3C8.54595 3 6.23299 3.96749 4.52763 5.68963C2.82228 7.41176 1.86422 9.74749 1.86422 12.183C1.86422 16.3906 0.882589 19.6235 0.22273 20.7702C0.0779513 21.0206 0.00112826 21.305 1.23332e-05 21.595C-0.0011036 21.8849 0.0735274 22.17 0.216374 22.4215C0.359221 22.6729 0.565229 22.8819 0.81361 23.0273C1.06199 23.1727 1.34396 23.2494 1.63105 23.2496H6.5835C6.75339 24.2968 7.28634 25.2488 8.08717 25.9358C8.88801 26.6228 9.90458 27 10.9554 27C12.0061 27 13.0227 26.6228 13.8235 25.9358C14.6244 25.2488 15.1573 24.2968 15.3272 23.2496H20.2843C20.5712 23.249 20.8529 23.172 21.1009 23.0265C21.349 22.8809 21.5547 22.6719 21.6972 22.4204C21.8398 22.169 21.9142 21.8841 21.913 21.5944C21.9118 21.3047 21.835 21.0204 21.6903 20.7702H21.6915ZM10.9577 25.6042C10.2756 25.604 9.61346 25.3714 9.07843 24.9442C8.54339 24.5169 8.16672 23.9198 8.0093 23.2496H13.9061C13.7487 23.9198 13.372 24.5169 12.8369 24.9442C12.3019 25.3714 11.6398 25.604 10.9577 25.6042ZM20.4837 21.7191C20.4645 21.7552 20.4358 21.7852 20.4009 21.806C20.3659 21.8267 20.326 21.8374 20.2855 21.8368H1.63105C1.59051 21.8374 1.55059 21.8267 1.51564 21.806C1.4807 21.7852 1.45206 21.7552 1.43286 21.7191C1.4124 21.6833 1.40162 21.6427 1.40162 21.6014C1.40162 21.56 1.4124 21.5194 1.43286 21.4836C2.31539 19.9532 3.26321 16.3847 3.26321 12.183C3.26321 10.1222 4.07388 8.14579 5.51687 6.6886C6.95987 5.23141 8.91699 4.41276 10.9577 4.41276C12.9984 4.41276 14.9555 5.23141 16.3985 6.6886C17.8415 8.14579 18.6522 10.1222 18.6522 12.183C18.6522 16.3836 19.6011 19.9473 20.4837 21.4836C20.5041 21.5194 20.5149 21.56 20.5149 21.6014C20.5149 21.6427 20.5041 21.6833 20.4837 21.7191Z" fill="white"/>
<circle cx="18.5" cy="5.5" r="5.5" fill="#FF0000"/>
</svg>
