<svg width="22" height="23" viewBox="0 0 22 23" fill="none" xmlns="http://www.w3.org/2000/svg">
<path d="M12.6184 22.2749C15.6919 19.7521 21.16 14.5978 21.16 9.86781C21.16 7.2507 20.0453 4.74079 18.0612 2.89021C16.0771 1.03964 13.386 0 10.58 0C7.77401 0 5.08294 1.03964 3.09881 2.89021C1.11468 4.74079 4.18125e-08 7.2507 0 9.86781C0 14.5978 5.46633 19.7521 8.54159 22.2749C9.10252 22.7419 9.82811 23 10.58 23C11.3319 23 12.0575 22.7419 12.6184 22.2749ZM7.05333 9.86781C7.05333 8.99544 7.42489 8.1588 8.08627 7.54194C8.74765 6.92508 9.64467 6.57854 10.58 6.57854C11.5153 6.57854 12.4124 6.92508 13.0737 7.54194C13.7351 8.1588 14.1067 8.99544 14.1067 9.86781C14.1067 10.7402 13.7351 11.5768 13.0737 12.1937C12.4124 12.8105 11.5153 13.1571 10.58 13.1571C9.64467 13.1571 8.74765 12.8105 8.08627 12.1937C7.42489 11.5768 7.05333 10.7402 7.05333 9.86781Z" fill="black"/>
</svg>
