<svg width="26" height="26" viewBox="0 0 26 26" fill="none" xmlns="http://www.w3.org/2000/svg">
<path d="M0.764706 22.1765C0.764706 20.554 1.40924 18.9979 2.55652 17.8506C3.7038 16.7034 5.25985 16.0588 6.88235 16.0588H19.1176C20.7401 16.0588 22.2962 16.7034 23.4435 17.8506C24.5908 18.9979 25.2353 20.554 25.2353 22.1765C25.2353 22.9877 24.913 23.7657 24.3394 24.3394C23.7657 24.913 22.9877 25.2353 22.1765 25.2353H3.82353C3.01228 25.2353 2.23426 24.913 1.66061 24.3394C1.08697 23.7657 0.764706 22.9877 0.764706 22.1765Z" stroke="white" stroke-width="1.5" stroke-linejoin="round"/>
<path d="M13 9.94118C15.534 9.94118 17.5882 7.88695 17.5882 5.35294C17.5882 2.81893 15.534 0.764706 13 0.764706C10.466 0.764706 8.41176 2.81893 8.41176 5.35294C8.41176 7.88695 10.466 9.94118 13 9.94118Z" stroke="white" stroke-width="1.5"/>
</svg>
